{
  "accessors": [
    {
      "bufferView": 2,
      "componentType": 5126,
      "count": 65532,
      "max": [
        12.309640884399414,
        -1.0677962303161621,
        9.0563974380493164
      ],
      "min": [
        -18.556989669799805,
        -21.030429840087891,
        -8.4841976165771484
      ],
      "type": "VEC3"
    },
    {
      "bufferView": 2,
      "byteOffset": 786384,
      "componentType": 5126,
      "count": 65532,
      "max": [
        0.99999964237213135,
        0.9999845027923584,
        0.99984157085418701
      ],
      "min": [
        -0.99999994039535522,
        -1,
        -1
      ],
      "type": "VEC3"
    },
    {
      "bufferView": 1,
      "componentType": 5126,
      "count": 65532,
      "max": [
        0.99971300363540649,
        0.8909909725189209
      ],
      "min": [
        0.00012199999764561653,
        0.00038199999835342169
      ],
      "type": "VEC2"
    },
    {
      "bufferView": 0,
      "componentType": 5125,
      "count": 300576,
      "max": [
        65531
      ],
      "min": [
        0
      ],
      "type": "SCALAR"
    },
    {
      "bufferView": 2,
      "byteOffset": 1572768,
      "componentType": 5126,
      "count": 65532,
      "max": [
        16.501562118530273,
        -1.0645368099212646,
        10.381744384765625
      ],
      "min": [
        -14.749025344848633,
        -23.575868606567383,
        -8.4841976165771484
      ],
      "type": "VEC3"
    },
    {
      "bufferView": 2,
      "byteOffset": 2359152,
      "componentType": 5126,
      "count": 65532,
      "max": [
        1,
        0.99990266561508179,
        0.99995183944702148
      ],
      "min": [
        -0.99999541044235229,
        -0.99999994039535522,
        -1
      ],
      "type": "VEC3"
    },
    {
      "bufferView": 1,
      "byteOffset": 524256,
      "componentType": 5126,
      "count": 65532,
      "max": [
        0.99968099594116211,
        0.8909909725189209
      ],
      "min": [
        0.00012199999764561653,
        0.00065399997401982546
      ],
      "type": "VEC2"
    },
    {
      "bufferView": 0,
      "byteOffset": 1202304,
      "componentType": 5125,
      "count": 284154,
      "max": [
        65531
      ],
      "min": [
        0
      ],
      "type": "SCALAR"
    },
    {
      "bufferView": 2,
      "byteOffset": 3145536,
      "componentType": 5126,
      "count": 65534,
      "max": [
        16.501562118530273,
        -1.0469123125076294,
        10.381744384765625
      ],
      "min": [
        -16.836004257202148,
        -21.690891265869141,
        -8.4841976165771484
      ],
      "type": "VEC3"
    },
    {
      "bufferView": 2,
      "byteOffset": 3931944,
      "componentType": 5126,
      "count": 65534,
      "max": [
        1,
        0.99907553195953369,
        1
      ],
      "min": [
        -0.9999995231628418,
        -1,
        -0.99999958276748657
      ],
      "type": "VEC3"
    },
    {
      "bufferView": 1,
      "byteOffset": 1048512,
      "componentType": 5126,
      "count": 65534,
      "max": [
        0.99973899126052856,
        0.89123499393463135
      ],
      "min": [
        0.00012199999764561653,
        0.0046129999682307243
      ],
      "type": "VEC2"
    },
    {
      "bufferView": 0,
      "byteOffset": 2338920,
      "componentType": 5125,
      "count": 286212,
      "max": [
        65533
      ],
      "min": [
        0
      ],
      "type": "SCALAR"
    },
    {
      "bufferView": 2,
      "byteOffset": 4718352,
      "componentType": 5126,
      "count": 65532,
      "max": [
        16.501562118530273,
        -1.0635316371917725,
        10.381744384765625
      ],
      "min": [
        -18.556989669799805,
        -23.388881683349609,
        -8.4841976165771484
      ],
      "type": "VEC3"
    },
    {
      "bufferView": 2,
      "byteOffset": 5504736,
      "componentType": 5126,
      "count": 65532,
      "max": [
        0.99999803304672241,
        0.99991941452026367,
        1
      ],
      "min": [
        -0.99999994039535522,
        -0.99999994039535522,
        -0.99999994039535522
      ],
      "type": "VEC3"
    },
    {
      "bufferView": 1,
      "byteOffset": 1572784,
      "componentType": 5126,
      "count": 65532,
      "max": [
        0.99979901313781738,
        0.8909909725189209
      ],
      "min": [
        0.00012199999764561653,
        0.00036899998667649925
      ],
      "type": "VEC2"
    },
    {
      "bufferView": 0,
      "byteOffset": 3483768,
      "componentType": 5125,
      "count": 258138,
      "max": [
        65531
      ],
      "min": [
        0
      ],
      "type": "SCALAR"
    },
    {
      "bufferView": 2,
      "byteOffset": 6291120,
      "componentType": 5126,
      "count": 15775,
      "max": [
        16.501562118530273,
        -1.0822018384933472,
        10.381744384765625
      ],
      "min": [
        -18.556989669799805,
        -22.402679443359375,
        -8.4841976165771484
      ],
      "type": "VEC3"
    },
    {
      "bufferView": 2,
      "byteOffset": 6480420,
      "componentType": 5126,
      "count": 15775,
      "max": [
        0.99979096651077271,
        0.99902385473251343,
        0.99999988079071045
      ],
      "min": [
        -0.9999922513961792,
        -1,
        -0.99999994039535522
      ],
      "type": "VEC3"
    },
    {
      "bufferView": 1,
      "byteOffset": 2097040,
      "componentType": 5126,
      "count": 15775,
      "max": [
        0.99962502717971802,
        0.8909909725189209
      ],
      "min": [
        0.010619999840855598,
        0.0011102487333118916
      ],
      "type": "VEC2"
    },
    {
      "bufferView": 0,
      "byteOffset": 4516320,
      "componentType": 5125,
      "count": 56103,
      "max": [
        15774
      ],
      "min": [
        0
      ],
      "type": "SCALAR"
    },
    {
      "bufferView": 2,
      "byteOffset": 6669720,
      "componentType": 5126,
      "count": 6119,
      "max": [
        16.501564025878906,
        -0.75781488418579102,
        10.381745338439941
      ],
      "min": [
        -18.556991577148438,
        -1.2776122093200684,
        -8.4841995239257812
      ],
      "type": "VEC3"
    },
    {
      "bufferView": 2,
      "byteOffset": 6743148,
      "componentType": 5126,
      "count": 6119,
      "max": [
        1,
        1,
        1
      ],
      "min": [
        -1,
        -0.9999997615814209,
        -1
      ],
      "type": "VEC3"
    },
    {
      "bufferView": 1,
      "byteOffset": 2223240,
      "componentType": 5126,
      "count": 6119,
      "max": [
        0,
        0
      ],
      "min": [
        0,
        0
      ],
      "type": "VEC2"
    },
    {
      "bufferView": 0,
      "byteOffset": 4740732,
      "componentType": 5125,
      "count": 31857,
      "max": [
        6118
      ],
      "min": [
        0
      ],
      "type": "SCALAR"
    }
  ],
  "asset": {
    "extras": {
      "author": "noe-3d.at (https://sketchfab.com/www.noe-3d.at)",
      "license": "CC0-1.0 (http://creativecommons.org/publicdomain/zero/1.0/)",
      "source": "https://sketchfab.com/3d-models/lowe-cb90310b9d354315b65a7640f9161339",
      "title": "Löwe"
    },
    "generator": "Sketchfab-7.80.0",
    "version": "2.0"
  },
  "bufferViews": [
    {
      "buffer": 0,
      "byteLength": 4868160,
      "byteOffset": 0,
      "name": "floatBufferViews",
      "target": 34963
    },
    {
      "buffer": 0,
      "byteLength": 2272192,
      "byteOffset": 4868160,
      "byteStride": 8,
      "name": "floatBufferViews",
      "target": 34962
    },
    {
      "buffer": 0,
      "byteLength": 6816576,
      "byteOffset": 7140352,
      "byteStride": 12,
      "name": "floatBufferViews",
      "target": 34962
    }
  ],
  "buffers": [
    {
      "byteLength": 13956928,
      "uri": "scene.bin"
    }
  ],
  "images": [
    {
      "uri": "textures/Loewe_O_Material_u1_v1_baseColor.png"
    }
  ],
  "materials": [
    {
      "doubleSided": true,
      "emissiveFactor": [
        0,
        0,
        0
      ],
      "name": "Loewe_O_Material_u1_v1",
      "pbrMetallicRoughness": {
        "baseColorFactor": [
          1,
          1,
          1,
          1
        ],
        "baseColorTexture": {
          "index": 0,
          "texCoord": 0
        },
        "metallicFactor": 0.10181250572204589,
        "roughnessFactor": 0.87943749427795415
      }
    }
  ],
  "meshes": [
    {
      "primitives": [
        {
          "attributes": {
            "NORMAL": 1,
            "POSITION": 0,
            "TEXCOORD_0": 2
          },
          "indices": 3,
          "material": 0,
          "mode": 4
        }
      ]
    },
    {
      "primitives": [
        {
          "attributes": {
            "NORMAL": 5,
            "POSITION": 4,
            "TEXCOORD_0": 6
          },
          "indices": 7,
          "material": 0,
          "mode": 4
        }
      ]
    },
    {
      "primitives": [
        {
          "attributes": {
            "NORMAL": 9,
            "POSITION": 8,
            "TEXCOORD_0": 10
          },
          "indices": 11,
          "material": 0,
          "mode": 4
        }
      ]
    },
    {
      "primitives": [
        {
          "attributes": {
            "NORMAL": 13,
            "POSITION": 12,
            "TEXCOORD_0": 14
          },
          "indices": 15,
          "material": 0,
          "mode": 4
        }
      ]
    },
    {
      "primitives": [
        {
          "attributes": {
            "NORMAL": 17,
            "POSITION": 16,
            "TEXCOORD_0": 18
          },
          "indices": 19,
          "material": 0,
          "mode": 4
        }
      ]
    },
    {
      "primitives": [
        {
          "attributes": {
            "NORMAL": 21,
            "POSITION": 20,
            "TEXCOORD_0": 22
          },
          "indices": 23,
          "material": 0,
          "mode": 4
        }
      ]
    }
  ],
  "nodes": [
    {
      "children": [
        1
      ],
      "name": "RootNode (gltf orientation matrix)",
      "rotation": [
        -0.70710678118654746,
        -0,
        -0,
        0.70710678118654757
      ]
    },
    {
      "children": [
        2
      ],
      "matrix": [
        0.9999992847442627,
        1.0842021724855044e-19,
        0.0011815944453701377,
        0,
        0.0011815862962976098,
        0.0037279531825333834,
        -0.99999237060546875,
        0,
        -4.404928859003121e-06,
        0.99999302625656128,
        0.0037279506213963032,
        0,
        0.014379658736288548,
        -13.070269584655762,
        -11.220318794250488,
        1
      ],
      "name": "RootNode (model correction matrix)"
    },
    {
      "children": [
        3,
        4,
        5,
        6,
        7,
        8
      ],
      "name": "Loewe_C.obj.cleaner.materialmerger.gles"
    },
    {
      "mesh": 0,
      "name": ""
    },
    {
      "mesh": 1,
      "name": ""
    },
    {
      "mesh": 2,
      "name": ""
    },
    {
      "mesh": 3,
      "name": ""
    },
    {
      "mesh": 4,
      "name": ""
    },
    {
      "mesh": 5,
      "name": ""
    }
  ],
  "samplers": [
    {
      "magFilter": 9729,
      "minFilter": 9987,
      "wrapS": 10497,
      "wrapT": 10497
    }
  ],
  "scene": 0,
  "scenes": [
    {
      "name": "OSG_Scene",
      "nodes": [
        0
      ]
    }
  ],
  "textures": [
    {
      "sampler": 0,
      "source": 0
    }
  ]
}

