{
  "accessors": [
    {
      "bufferView": 2,
      "componentType": 5126,
      "count": 65532,
      "max": [
        6.8777413368225098,
        -1.025166392326355,
        8.8520021438598633
      ],
      "min": [
        -6.9964208602905273,
        -18.295413970947266,
        -10.894256591796875
      ],
      "type": "VEC3"
    },
    {
      "bufferView": 2,
      "byteOffset": 786384,
      "componentType": 5126,
      "count": 65532,
      "max": [
        1,
        0.9773750901222229,
        0.99998754262924194
      ],
      "min": [
        -1,
        -1,
        -1
      ],
      "type": "VEC3"
    },
    {
      "bufferView": 1,
      "componentType": 5126,
      "count": 65532,
      "max": [
        0.99978399276733398,
        0.93859899044036865
      ],
      "min": [
        0.00012199999764561653,
        0.0002390000008745119
      ],
      "type": "VEC2"
    },
    {
      "bufferView": 0,
      "componentType": 5125,
      "count": 313716,
      "max": [
        65531
      ],
      "min": [
        0
      ],
      "type": "SCALAR"
    },
    {
      "bufferView": 2,
      "byteOffset": 1572768,
      "componentType": 5126,
      "count": 65532,
      "max": [
        6.8777413368225098,
        -1.0815436840057373,
        10.773747444152832
      ],
      "min": [
        -6.9964208602905273,
        -18.46626091003418,
        -10.602571487426758
      ],
      "type": "VEC3"
    },
    {
      "bufferView": 2,
      "byteOffset": 2359152,
      "componentType": 5126,
      "count": 65532,
      "max": [
        0.9999997615814209,
        0.99910211563110352,
        0.99999994039535522
      ],
      "min": [
        -0.9999997615814209,
        -0.99999994039535522,
        -0.99999117851257324
      ],
      "type": "VEC3"
    },
    {
      "bufferView": 1,
      "byteOffset": 524256,
      "componentType": 5126,
      "count": 65532,
      "max": [
        0.99971902370452881,
        0.9349370002746582
      ],
      "min": [
        0.00012199999764561653,
        0.00038899999344721437
      ],
      "type": "VEC2"
    },
    {
      "bufferView": 0,
      "byteOffset": 1254864,
      "componentType": 5125,
      "count": 293040,
      "max": [
        65531
      ],
      "min": [
        0
      ],
      "type": "SCALAR"
    },
    {
      "bufferView": 2,
      "byteOffset": 3145536,
      "componentType": 5126,
      "count": 65532,
      "max": [
        6.8777413368225098,
        -1.0374025106430054,
        10.773747444152832
      ],
      "min": [
        -6.9964208602905273,
        -17.602540969848633,
        -10.894256591796875
      ],
      "type": "VEC3"
    },
    {
      "bufferView": 2,
      "byteOffset": 3931920,
      "componentType": 5126,
      "count": 65532,
      "max": [
        0.9999997615814209,
        0.99951803684234619,
        0.99999946355819702
      ],
      "min": [
        -1,
        -1,
        -0.99999994039535522
      ],
      "type": "VEC3"
    },
    {
      "bufferView": 1,
      "byteOffset": 1048512,
      "componentType": 5126,
      "count": 65532,
      "max": [
        0.99966198205947876,
        0.8931879997253418
      ],
      "min": [
        0.00012199999764561653,
        0.20672500133514404
      ],
      "type": "VEC2"
    },
    {
      "bufferView": 0,
      "byteOffset": 2427024,
      "componentType": 5125,
      "count": 301929,
      "max": [
        65531
      ],
      "min": [
        0
      ],
      "type": "SCALAR"
    },
    {
      "bufferView": 2,
      "byteOffset": 4718304,
      "componentType": 5126,
      "count": 65532,
      "max": [
        6.8143115043640137,
        -1.025166392326355,
        10.773747444152832
      ],
      "min": [
        -4.8668985366821289,
        -18.103462219238281,
        -9.0501651763916016
      ],
      "type": "VEC3"
    },
    {
      "bufferView": 2,
      "byteOffset": 5504688,
      "componentType": 5126,
      "count": 65532,
      "max": [
        1,
        0.99935907125473022,
        0.99999994039535522
      ],
      "min": [
        -0.99999761581420898,
        -0.99999803304672241,
        -0.99999994039535522
      ],
      "type": "VEC3"
    },
    {
      "bufferView": 1,
      "byteOffset": 1572768,
      "componentType": 5126,
      "count": 65532,
      "max": [
        0.99981099367141724,
        0.92895901203155518
      ],
      "min": [
        0.00012199999764561653,
        0.00051899999380111694
      ],
      "type": "VEC2"
    },
    {
      "bufferView": 0,
      "byteOffset": 3634740,
      "componentType": 5125,
      "count": 266712,
      "max": [
        65531
      ],
      "min": [
        0
      ],
      "type": "SCALAR"
    },
    {
      "bufferView": 2,
      "byteOffset": 6291072,
      "componentType": 5126,
      "count": 1054,
      "max": [
        6.8777413368225098,
        -1.0359139442443848,
        10.773747444152832
      ],
      "min": [
        -6.9964208602905273,
        -11.86237907409668,
        -10.894256591796875
      ],
      "type": "VEC3"
    },
    {
      "bufferView": 2,
      "byteOffset": 6303720,
      "componentType": 5126,
      "count": 1054,
      "max": [
        0.99960750341415405,
        0.89326727390289307,
        0.99999910593032837
      ],
      "min": [
        -0.99995875358581543,
        -0.99999892711639404,
        -0.99999785423278809
      ],
      "type": "VEC3"
    },
    {
      "bufferView": 1,
      "byteOffset": 2097024,
      "componentType": 5126,
      "count": 1054,
      "max": [
        0.9980890154838562,
        0.89294397830963135
      ],
      "min": [
        0.0031810000073164701,
        0.012075494974851608
      ],
      "type": "VEC2"
    },
    {
      "bufferView": 0,
      "byteOffset": 4701588,
      "componentType": 5125,
      "count": 2199,
      "max": [
        1053
      ],
      "min": [
        0
      ],
      "type": "SCALAR"
    },
    {
      "bufferView": 2,
      "byteOffset": 6316368,
      "componentType": 5126,
      "count": 5118,
      "max": [
        6.8777413368225098,
        -0.8905072808265686,
        10.773750305175781
      ],
      "min": [
        -6.996422290802002,
        -1.373761773109436,
        -10.894257545471191
      ],
      "type": "VEC3"
    },
    {
      "bufferView": 2,
      "byteOffset": 6377784,
      "componentType": 5126,
      "count": 5118,
      "max": [
        1,
        0.99997997283935547,
        1
      ],
      "min": [
        -1,
        -0.99999475479125977,
        -1
      ],
      "type": "VEC3"
    },
    {
      "bufferView": 1,
      "byteOffset": 2105456,
      "componentType": 5126,
      "count": 5118,
      "max": [
        0,
        0
      ],
      "min": [
        0,
        0
      ],
      "type": "VEC2"
    },
    {
      "bufferView": 0,
      "byteOffset": 4710384,
      "componentType": 5125,
      "count": 26700,
      "max": [
        5117
      ],
      "min": [
        0
      ],
      "type": "SCALAR"
    }
  ],
  "asset": {
    "extras": {
      "author": "noe-3d.at (https://sketchfab.com/www.noe-3d.at)",
      "license": "CC0-1.0 (http://creativecommons.org/publicdomain/zero/1.0/)",
      "source": "https://sketchfab.com/3d-models/sphinx-8e64bd7bebfd4fcdb059e547edc8baee",
      "title": "Sphinx"
    },
    "generator": "Sketchfab-7.80.0",
    "version": "2.0"
  },
  "bufferViews": [
    {
      "buffer": 0,
      "byteLength": 4817184,
      "byteOffset": 0,
      "name": "floatBufferViews",
      "target": 34963
    },
    {
      "buffer": 0,
      "byteLength": 2146400,
      "byteOffset": 4817184,
      "byteStride": 8,
      "name": "floatBufferViews",
      "target": 34962
    },
    {
      "buffer": 0,
      "byteLength": 6439200,
      "byteOffset": 6963584,
      "byteStride": 12,
      "name": "floatBufferViews",
      "target": 34962
    }
  ],
  "buffers": [
    {
      "byteLength": 13402784,
      "uri": "scene.bin"
    }
  ],
  "images": [
    {
      "uri": "textures/Sphinx_O_Material_u1_v1_baseColor.png"
    }
  ],
  "materials": [
    {
      "doubleSided": true,
      "emissiveFactor": [
        0,
        0,
        0
      ],
      "name": "Sphinx_O_Material_u1_v1",
      "pbrMetallicRoughness": {
        "baseColorFactor": [
          1,
          1,
          1,
          1
        ],
        "baseColorTexture": {
          "index": 0,
          "texCoord": 0
        },
        "metallicFactor": 0.033062505722045901,
        "roughnessFactor": 0.6731874942779541
      }
    }
  ],
  "meshes": [
    {
      "primitives": [
        {
          "attributes": {
            "NORMAL": 1,
            "POSITION": 0,
            "TEXCOORD_0": 2
          },
          "indices": 3,
          "material": 0,
          "mode": 4
        }
      ]
    },
    {
      "primitives": [
        {
          "attributes": {
            "NORMAL": 5,
            "POSITION": 4,
            "TEXCOORD_0": 6
          },
          "indices": 7,
          "material": 0,
          "mode": 4
        }
      ]
    },
    {
      "primitives": [
        {
          "attributes": {
            "NORMAL": 9,
            "POSITION": 8,
            "TEXCOORD_0": 10
          },
          "indices": 11,
          "material": 0,
          "mode": 4
        }
      ]
    },
    {
      "primitives": [
        {
          "attributes": {
            "NORMAL": 13,
            "POSITION": 12,
            "TEXCOORD_0": 14
          },
          "indices": 15,
          "material": 0,
          "mode": 4
        }
      ]
    },
    {
      "primitives": [
        {
          "attributes": {
            "NORMAL": 17,
            "POSITION": 16,
            "TEXCOORD_0": 18
          },
          "indices": 19,
          "material": 0,
          "mode": 4
        }
      ]
    },
    {
      "primitives": [
        {
          "attributes": {
            "NORMAL": 21,
            "POSITION": 20,
            "TEXCOORD_0": 22
          },
          "indices": 23,
          "material": 0,
          "mode": 4
        }
      ]
    }
  ],
  "nodes": [
    {
      "children": [
        1
      ],
      "name": "RootNode (gltf orientation matrix)",
      "rotation": [
        -0.70710678118654746,
        -0,
        -0,
        0.70710678118654757
      ]
    },
    {
      "children": [
        2
      ],
      "matrix": [
        0.99990260601043701,
        -0.0040894253179430962,
        0.013343551196157932,
        0,
        0.013337037526071072,
        -0.0016158918151631951,
        -0.99990975856781006,
        0,
        0.0041106180287897587,
        0.99999034404754639,
        -0.0015611937269568443,
        0,
        0.12932337820529938,
        -9.6339883804321289,
        -9.7371377944946289,
        1
      ],
      "name": "RootNode (model correction matrix)"
    },
    {
      "children": [
        3,
        4,
        5,
        6,
        7,
        8
      ],
      "name": "Sphinx_C.obj.cleaner.materialmerger.gles"
    },
    {
      "mesh": 0,
      "name": ""
    },
    {
      "mesh": 1,
      "name": ""
    },
    {
      "mesh": 2,
      "name": ""
    },
    {
      "mesh": 3,
      "name": ""
    },
    {
      "mesh": 4,
      "name": ""
    },
    {
      "mesh": 5,
      "name": ""
    }
  ],
  "samplers": [
    {
      "magFilter": 9729,
      "minFilter": 9987,
      "wrapS": 10497,
      "wrapT": 10497
    }
  ],
  "scene": 0,
  "scenes": [
    {
      "name": "OSG_Scene",
      "nodes": [
        0
      ]
    }
  ],
  "textures": [
    {
      "sampler": 0,
      "source": 0
    }
  ]
}

